<svg width="32" height="32" viewBox="0 0 32 32" fill="none" xmlns="http://www.w3.org/2000/svg">
<path d="M11.1958 20.8012C7.88452 17.4898 7.91607 14.4783 11.1958 11.1985C14.4755 7.91869 17.4869 7.88713 20.7982 11.1985C24.1094 14.5098 24.0778 17.5214 20.7982 20.8012C19.1549 22.4445 17.5771 23.2717 15.997 23.274C14.4236 23.274 12.848 22.4535 11.1958 20.8012ZM7.19477 7.19736C4.18782 10.2044 2.67082 13.0897 2.66406 15.9795V16.0179C2.67082 18.8964 4.1743 21.7817 7.19477 24.8023C10.2152 27.8229 13.1005 29.3264 15.9789 29.3332H16.0172C18.9092 29.3264 21.7922 27.8094 24.7992 24.8023C30.813 18.7882 30.8694 13.2655 24.7992 7.19736C21.7719 4.17003 18.8799 2.66651 15.9947 2.66651C13.0982 2.66425 10.2085 4.18355 7.19477 7.19736Z" fill="url(#paint0_linear_34800_51169)"/>
<defs>
<linearGradient id="paint0_linear_34800_51169" x1="6.95493" y1="24.9915" x2="24.7878" y2="7.25939" gradientUnits="userSpaceOnUse">
<stop stop-color="#0073FF"/>
<stop offset="1" stop-color="#00DEFF"/>
</linearGradient>
</defs>
</svg>
